<svg width="49" height="20" viewBox="0 0 49 20" fill="none" xmlns="http://www.w3.org/2000/svg">
<path d="M13.5835 5.44373C15.878 5.44373 17.8744 7.07516 17.8744 10.9489V10.9638C17.8744 14.5842 16.243 16.7296 13.5389 16.7296C11.5648 16.7296 10.0898 15.56 9.7471 13.9137L9.7322 13.8318H11.6244L11.6467 13.9063C11.9298 14.6587 12.5928 15.1503 13.5389 15.1503C15.2448 15.1503 15.9674 13.4817 16.0493 11.4256C16.0493 11.3437 16.0568 11.2617 16.0568 11.1798H15.9078C15.5129 12.029 14.5743 12.7814 13.0993 12.7814C11.0358 12.7814 9.59066 11.2766 9.59066 9.23549V9.22059C9.59066 7.03791 11.2519 5.44373 13.5835 5.44373ZM13.5761 11.3064C14.7904 11.3064 15.7215 10.4274 15.7215 9.21314V9.19824C15.7215 7.96909 14.7904 7.00811 13.5984 7.00811C12.414 7.00811 11.4679 7.95419 11.4679 9.15355V9.16844C11.4679 10.4125 12.3544 11.3064 13.5761 11.3064ZM20.8903 9.49622C20.2124 9.49622 19.7058 8.97476 19.7058 8.31921C19.7058 7.65621 20.2124 7.1422 20.8903 7.1422C21.5756 7.1422 22.0748 7.65621 22.0748 8.31921C22.0748 8.97476 21.5756 9.49622 20.8903 9.49622ZM20.8903 15.0237C20.2124 15.0237 19.7058 14.5097 19.7058 13.8467C19.7058 13.1837 20.2124 12.6697 20.8903 12.6697C21.5756 12.6697 22.0748 13.1837 22.0748 13.8467C22.0748 14.5097 21.5756 15.0237 20.8903 15.0237ZM29.1208 16.4614V14.3979H23.8615V12.8261C25.2545 10.405 26.7817 7.93184 28.2417 5.71191H30.9608V12.8112H32.406V14.3979H30.9608V16.4614H29.1208ZM25.6493 12.8559H29.1506V7.24649H29.0388C27.9363 8.93006 26.6923 10.9191 25.6493 12.7442V12.8559ZM36.4946 16.4614V7.60407H36.3679L33.6936 9.49622V7.68601L36.502 5.71191H38.4165V16.4614H36.4946Z" fill="white"/>
</svg>
