<svg width="177" height="66" viewBox="0 0 177 66" fill="none" xmlns="http://www.w3.org/2000/svg">
<path d="M73.6692 62.9993V25.7983H87.9103C90.5986 25.7983 92.8329 26.2221 94.613 27.0698C96.4052 27.9053 97.7434 29.0497 98.6274 30.5029C99.5235 31.956 99.9715 33.603 99.9715 35.4436C99.9715 36.9574 99.6809 38.2531 99.0996 39.3309C98.5184 40.3965 97.7373 41.2624 96.7564 41.9284C95.7755 42.5944 94.6796 43.0728 93.4686 43.3634V43.7267C94.7886 43.7993 96.0541 44.205 97.265 44.9437C98.4881 45.6703 99.4872 46.6996 100.262 48.0317C101.037 49.3638 101.425 50.9744 101.425 52.8635C101.425 54.7889 100.958 56.5206 100.026 58.0585C99.0936 59.5844 97.6889 60.7893 95.8119 61.6733C93.9349 62.5573 91.5735 62.9993 88.7277 62.9993H73.6692ZM80.4083 57.3683H87.656C90.1021 57.3683 91.8641 56.9021 92.9419 55.9696C94.0317 55.0251 94.5767 53.8141 94.5767 52.3367C94.5767 51.2347 94.3042 50.2417 93.7593 49.3577C93.2143 48.4616 92.4393 47.7592 91.4342 47.2506C90.4291 46.7299 89.2302 46.4695 87.8376 46.4695H80.4083V57.3683ZM80.4083 41.6196H87.0747C88.2372 41.6196 89.2847 41.4077 90.2172 40.9838C91.1496 40.5479 91.8823 39.9363 92.4151 39.1492C92.96 38.35 93.2325 37.4054 93.2325 36.3155C93.2325 34.8745 92.7239 33.6877 91.7067 32.7553C90.7016 31.8228 89.206 31.3566 87.22 31.3566H80.4083V41.6196ZM102.905 62.9993V35.0985H109.48V62.9993H102.905ZM106.211 31.1386C105.169 31.1386 104.273 30.7935 103.522 30.1033C102.771 29.4009 102.396 28.5593 102.396 27.5784C102.396 26.5854 102.771 25.7438 103.522 25.0535C104.273 24.3511 105.169 24 106.211 24C107.264 24 108.16 24.3511 108.899 25.0535C109.65 25.7438 110.025 26.5854 110.025 27.5784C110.025 28.5593 109.65 29.4009 108.899 30.1033C108.16 30.7935 107.264 31.1386 106.211 31.1386ZM112.44 62.9993V25.7983H119.016V39.7123H119.288C119.628 39.0342 120.106 38.3136 120.723 37.5507C121.341 36.7757 122.177 36.1157 123.23 35.5708C124.284 35.0137 125.628 34.7352 127.263 34.7352C129.418 34.7352 131.362 35.2862 133.094 36.3882C134.837 37.4781 136.218 39.0947 137.235 41.2381C138.264 43.3694 138.779 45.9851 138.779 49.0852C138.779 52.149 138.277 54.7526 137.271 56.896C136.266 59.0394 134.898 60.6742 133.166 61.8004C131.435 62.9266 129.473 63.4897 127.281 63.4897C125.682 63.4897 124.356 63.2233 123.303 62.6905C122.249 62.1577 121.402 61.5159 120.76 60.7651C120.13 60.0021 119.64 59.2816 119.288 58.6035H118.907V62.9993H112.44ZM118.889 49.0489C118.889 50.8533 119.143 52.4336 119.652 53.7899C120.172 55.1461 120.917 56.2057 121.886 56.9687C122.867 57.7195 124.054 58.0949 125.446 58.0949C126.899 58.0949 128.116 57.7074 129.097 56.9323C130.078 56.1452 130.817 55.0735 131.313 53.7172C131.822 52.3488 132.076 50.7927 132.076 49.0489C132.076 47.3172 131.828 45.7793 131.332 44.4351C130.835 43.0909 130.096 42.0374 129.116 41.2745C128.135 40.5116 126.912 40.1301 125.446 40.1301C124.042 40.1301 122.849 40.4994 121.868 41.2381C120.887 41.9768 120.142 43.0122 119.634 44.3443C119.137 45.6764 118.889 47.2446 118.889 49.0489ZM146.853 25.7983V62.9993H140.277V25.7983H146.853ZM161.874 63.5442C159.077 63.5442 156.661 62.963 154.627 61.8004C152.604 60.6258 151.048 58.9668 149.958 56.8233C148.868 54.6678 148.323 52.1308 148.323 49.2124C148.323 46.3424 148.868 43.8236 149.958 41.6559C151.06 39.4762 152.598 37.7808 154.572 36.5698C156.546 35.3468 158.865 34.7352 161.529 34.7352C163.249 34.7352 164.871 35.0137 166.397 35.5708C167.935 36.1157 169.291 36.9634 170.466 38.1138C171.653 39.2643 172.585 40.7295 173.263 42.5097C173.942 44.2777 174.281 46.3848 174.281 48.8309V50.8472H151.411V46.415H167.978C167.965 45.1556 167.693 44.0355 167.16 43.0546C166.627 42.0616 165.883 41.2805 164.926 40.7114C163.981 40.1422 162.879 39.8576 161.62 39.8576C160.276 39.8576 159.095 40.1846 158.078 40.8385C157.061 41.4803 156.267 42.328 155.698 43.3816C155.141 44.423 154.857 45.5674 154.845 46.8147V50.6837C154.845 52.3064 155.141 53.699 155.735 54.8616C156.328 56.012 157.158 56.896 158.223 57.5136C159.289 58.1191 160.536 58.4218 161.965 58.4218C162.922 58.4218 163.788 58.2886 164.563 58.0222C165.338 57.7437 166.01 57.338 166.579 56.8052C167.148 56.2724 167.578 55.6124 167.869 54.8252L174.008 55.5155C173.621 57.1382 172.882 58.555 171.792 59.766C170.714 60.9649 169.334 61.8973 167.651 62.5634C165.967 63.2173 164.042 63.5442 161.874 63.5442Z" fill="white"/>
<path d="M1.5 46C10 46 32.5 38.9 56.5 2.5M1.5 54C7.5 54 26.9 49.8 56.5 31M1.5 59.5H56.5" stroke="#FFC943" stroke-width="8"/>
</svg>
