<svg width="71" height="12" viewBox="0 0 71 12" fill="none" xmlns="http://www.w3.org/2000/svg">
<path opacity="0.35" d="M49.1284 0.524902L64.3843 0.524902C66.1054 0.524902 67.5015 1.92002 67.5015 3.64111V8.12842C67.5013 9.8494 66.1053 11.2446 64.3843 11.2446H49.1284C47.4074 11.2446 46.0123 9.8494 46.0122 8.12842V3.64111L46.0161 3.48096C46.0994 1.83425 47.461 0.524902 49.1284 0.524902Z" stroke="white" stroke-width="0.946872"/>
<path opacity="0.4" d="M68.8716 4.53857V8.32606C69.6336 8.00528 70.1291 7.25906 70.1291 6.43232C70.1291 5.60557 69.6336 4.85935 68.8716 4.53857Z" fill="white"/>
<path d="M47.3335 3.64106C47.3335 2.64978 48.1371 1.84619 49.1284 1.84619L64.3848 1.84619C65.3761 1.84619 66.1796 2.64978 66.1796 3.64106V8.12824C66.1796 9.11952 65.3761 9.92311 64.3848 9.92311H49.1284C48.1371 9.92311 47.3335 9.11952 47.3335 8.12824V3.64106Z" fill="white"/>
<path d="M29.4883 9.10218C30.7624 8.00232 32.6282 8.00239 33.9023 9.10218C33.9665 9.16136 34.0041 9.24542 34.0059 9.33363C34.0075 9.42163 33.9736 9.50631 33.9121 9.568L31.917 11.6237C31.8585 11.6841 31.7785 11.7184 31.6953 11.7184C31.6122 11.7184 31.5321 11.684 31.4736 11.6237L29.4785 9.568C29.417 9.50627 29.3831 9.42163 29.3848 9.33363C29.3866 9.24542 29.4241 9.16131 29.4883 9.10218ZM26.791 6.568C29.5363 3.96163 33.787 3.96162 36.5322 6.568C36.5942 6.62913 36.63 6.71344 36.6309 6.8014C36.6316 6.88922 36.5978 6.97347 36.5371 7.03578L35.3838 8.22523C35.2649 8.34671 35.0731 8.34935 34.9512 8.23109C34.0497 7.39784 32.8763 6.93707 31.6602 6.93714C30.4449 6.93773 29.2729 7.39847 28.3721 8.23109C28.2501 8.34935 28.0583 8.34671 27.9395 8.22523L26.7861 7.03578C26.7254 6.97356 26.6917 6.8892 26.6924 6.8014C26.6932 6.71341 26.729 6.62913 26.791 6.568ZM24.0967 4.03773C28.3073 -0.080947 34.9495 -0.0809253 39.1602 4.03773C39.2211 4.09892 39.2563 4.18289 39.2568 4.27015C39.2573 4.35726 39.2232 4.44074 39.1631 4.50257L38.0088 5.69203C37.8898 5.8141 37.696 5.81613 37.5752 5.69593C35.971 4.13923 33.8424 3.27126 31.6289 3.27113C29.4152 3.27112 27.2861 4.13907 25.6816 5.69593C25.5609 5.81631 25.367 5.81429 25.2481 5.69203L24.0938 4.50257C24.0336 4.44071 23.9995 4.35728 24 4.27015C24.0006 4.18289 24.0357 4.09888 24.0967 4.03773Z" fill="white"/>
<path d="M9.64086 3.64104C9.64086 3.1454 10.0427 2.7436 10.5383 2.7436H11.4357C11.9314 2.7436 12.3332 3.1454 12.3332 3.64104V10.8205C12.3332 11.3162 11.9314 11.718 11.4357 11.718H10.5383C10.0427 11.718 9.64086 11.3162 9.64086 10.8205V3.64104Z" fill="white"/>
<path d="M14.128 1.84617C14.128 1.35053 14.5298 0.94873 15.0255 0.94873H15.9229C16.4186 0.94873 16.8204 1.35053 16.8204 1.84617V10.8205C16.8204 11.3162 16.4186 11.718 15.9229 11.718H15.0255C14.5298 11.718 14.128 11.3162 14.128 10.8205V1.84617Z" fill="white"/>
<path d="M5.15368 6.78206C5.15368 6.28642 5.55548 5.88463 6.05112 5.88463H6.94855C7.4442 5.88463 7.84599 6.28642 7.84599 6.78206V10.8205C7.84599 11.3162 7.4442 11.718 6.94855 11.718H6.05112C5.55548 11.718 5.15368 11.3162 5.15368 10.8205V6.78206Z" fill="white"/>
<path d="M0.666504 9.02565C0.666504 8.53001 1.0683 8.12822 1.56394 8.12822H2.46138C2.95702 8.12822 3.35881 8.53001 3.35881 9.02565V10.8205C3.35881 11.3162 2.95702 11.718 2.46138 11.718H1.56394C1.0683 11.718 0.666504 11.3162 0.666504 10.8205V9.02565Z" fill="white"/>
</svg>
