<svg width="20" height="20" viewBox="0 0 20 20" fill="none" xmlns="http://www.w3.org/2000/svg">
<g clip-path="url(#clip0_8687_1916)">
<path d="M14.1665 2.78357C15.4333 3.51498 16.4853 4.56697 17.2167 5.8338C17.9481 7.10064 18.3332 8.53769 18.3332 10.0005C18.3332 11.4633 17.9481 12.9004 17.2167 14.1672C16.4853 15.434 15.4333 16.486 14.1664 17.2174C12.8996 17.9488 11.4625 18.3338 9.99971 18.3338C8.53689 18.3338 7.09985 17.9487 5.83303 17.2172C4.56621 16.4858 3.51425 15.4338 2.78287 14.167C2.05149 12.9001 1.66647 11.4631 1.6665 10.0002L1.67067 9.73024C1.71734 8.29106 2.13613 6.88854 2.8862 5.6594C3.63628 4.43026 4.69205 3.41645 5.95058 2.7168C7.20911 2.01716 8.62746 1.65557 10.0673 1.66727C11.5072 1.67897 12.9195 2.06357 14.1665 2.78357ZM10.6857 6.19357C10.609 6.08253 10.5066 5.99176 10.3871 5.92906C10.2677 5.86636 10.1348 5.8336 9.99984 5.8336C9.86492 5.8336 9.73202 5.86636 9.61256 5.92906C9.49309 5.99176 9.39064 6.08253 9.314 6.19357L7.14567 9.33024C6.294 10.7219 6.61734 12.4436 7.87484 13.4377C8.48148 13.9106 9.22861 14.1673 9.99775 14.1673C10.7669 14.1673 11.514 13.9106 12.1207 13.4377C13.379 12.4452 13.7015 10.7211 12.874 9.3694L10.6857 6.19357Z" fill="#CCCCCC"/>
</g>
<defs>
<clipPath id="clip0_8687_1916">
<rect width="20" height="20" fill="white"/>
</clipPath>
</defs>
</svg>
