<svg width="20" height="20" viewBox="0 0 20 20" fill="none" xmlns="http://www.w3.org/2000/svg">
<g clip-path="url(#clip0_8687_1930)">
<path d="M2.5 10C2.5 10.9849 2.69399 11.9602 3.0709 12.8701C3.44781 13.7801 4.00026 14.6069 4.6967 15.3033C5.39314 15.9997 6.21993 16.5522 7.12987 16.9291C8.03982 17.306 9.01509 17.5 10 17.5C10.9849 17.5 11.9602 17.306 12.8701 16.9291C13.7801 16.5522 14.6069 15.9997 15.3033 15.3033C15.9997 14.6069 16.5522 13.7801 16.9291 12.8701C17.306 11.9602 17.5 10.9849 17.5 10C17.5 9.01509 17.306 8.03982 16.9291 7.12987C16.5522 6.21993 15.9997 5.39314 15.3033 4.6967C14.6069 4.00026 13.7801 3.44781 12.8701 3.0709C11.9602 2.69399 10.9849 2.5 10 2.5C9.01509 2.5 8.03982 2.69399 7.12987 3.0709C6.21993 3.44781 5.39314 4.00026 4.6967 4.6967C4.00026 5.39314 3.44781 6.21993 3.0709 7.12987C2.69399 8.03982 2.5 9.01509 2.5 10Z" stroke="#CCCCCC" stroke-width="1.66667" stroke-linecap="round" stroke-linejoin="round"/>
<path d="M10 2.5C9.00544 2.5 8.05161 2.89509 7.34835 3.59835C6.64509 4.30161 6.25 5.25544 6.25 6.25C6.25 7.24456 6.64509 8.19839 7.34835 8.90165C8.05161 9.60491 9.00544 10 10 10C10.9946 10 11.9484 10.3951 12.6516 11.0983C13.3549 11.8016 13.75 12.7554 13.75 13.75C13.75 14.7446 13.3549 15.6984 12.6516 16.4016C11.9484 17.1049 10.9946 17.5 10 17.5" stroke="#CCCCCC" stroke-width="1.66667" stroke-linecap="round" stroke-linejoin="round"/>
<path d="M10.0002 6.66634C10.2303 6.66634 10.4168 6.47979 10.4168 6.24967C10.4168 6.01956 10.2303 5.83301 10.0002 5.83301C9.77004 5.83301 9.5835 6.01956 9.5835 6.24967C9.5835 6.47979 9.77004 6.66634 10.0002 6.66634Z" fill="#CCCCCC" stroke="#CCCCCC" stroke-width="1.66667" stroke-linecap="round" stroke-linejoin="round"/>
<path d="M10.0002 14.1663C10.2303 14.1663 10.4168 13.9798 10.4168 13.7497C10.4168 13.5196 10.2303 13.333 10.0002 13.333C9.77004 13.333 9.5835 13.5196 9.5835 13.7497C9.5835 13.9798 9.77004 14.1663 10.0002 14.1663Z" fill="#CCCCCC" stroke="#CCCCCC" stroke-width="1.66667" stroke-linecap="round" stroke-linejoin="round"/>
</g>
<defs>
<clipPath id="clip0_8687_1930">
<rect width="20" height="20" fill="white"/>
</clipPath>
</defs>
</svg>
