<svg width="64" height="64" viewBox="0 0 64 64" fill="none" xmlns="http://www.w3.org/2000/svg">
<rect width="64" height="64" rx="32" fill="#F9F9F9"/>
<g clip-path="url(#clip0_9075_1502)">
<path d="M29 24H27C26.4696 24 25.9609 24.2107 25.5858 24.5858C25.2107 24.9609 25 25.4696 25 26V38C25 38.5304 25.2107 39.0391 25.5858 39.4142C25.9609 39.7893 26.4696 40 27 40H29C29.5304 40 30.0391 39.7893 30.4142 39.4142C30.7893 39.0391 31 38.5304 31 38V26C31 25.4696 30.7893 24.9609 30.4142 24.5858C30.0391 24.2107 29.5304 24 29 24Z" fill="#0D0D0D"/>
<path d="M37 24H35C34.4696 24 33.9609 24.2107 33.5858 24.5858C33.2107 24.9609 33 25.4696 33 26V38C33 38.5304 33.2107 39.0391 33.5858 39.4142C33.9609 39.7893 34.4696 40 35 40H37C37.5304 40 38.0391 39.7893 38.4142 39.4142C38.7893 39.0391 39 38.5304 39 38V26C39 25.4696 38.7893 24.9609 38.4142 24.5858C38.0391 24.2107 37.5304 24 37 24Z" fill="#0D0D0D"/>
</g>
<defs>
<clipPath id="clip0_9075_1502">
<rect width="24" height="24" fill="white" transform="translate(20 20)"/>
</clipPath>
</defs>
</svg>
