<svg width="46" height="46" viewBox="0 0 46 46" fill="none" xmlns="http://www.w3.org/2000/svg">
<rect x="1" y="1" width="44" height="44" rx="8" fill="white"/>
<rect x="1" y="1" width="44" height="44" rx="8" stroke="white" stroke-opacity="0.08"/>
<g clip-path="url(#clip0_8687_2009)">
<path d="M18 16.3336V29.6669C18 29.8152 18.0395 29.9608 18.1145 30.0887C18.1895 30.2166 18.2973 30.3222 18.4267 30.3945C18.5561 30.4669 18.7025 30.5034 18.8507 30.5003C18.999 30.4972 19.1437 30.4546 19.27 30.3769L30.1033 23.7102C30.2247 23.6357 30.3249 23.5313 30.3944 23.407C30.4639 23.2827 30.5004 23.1426 30.5004 23.0002C30.5004 22.8578 30.4639 22.7178 30.3944 22.5935C30.3249 22.4692 30.2247 22.3648 30.1033 22.2902L19.27 15.6236C19.1437 15.5459 18.999 15.5033 18.8507 15.5002C18.7025 15.4971 18.5561 15.5336 18.4267 15.606C18.2973 15.6783 18.1895 15.7839 18.1145 15.9118C18.0395 16.0397 18 16.1853 18 16.3336Z" fill="#080808"/>
</g>
<defs>
<clipPath id="clip0_8687_2009">
<rect width="20" height="20" fill="white" transform="translate(13 13)"/>
</clipPath>
</defs>
</svg>
