<svg width="64" height="64" viewBox="0 0 64 64" fill="none" xmlns="http://www.w3.org/2000/svg">
<rect width="64" height="64" rx="32" fill="#F9F9F9"/>
<g clip-path="url(#clip0_9075_1782)">
<path d="M26 24V40C25.9999 40.1779 26.0474 40.3527 26.1374 40.5061C26.2274 40.6596 26.3567 40.7863 26.512 40.8731C26.6673 40.96 26.843 41.0038 27.0209 41.0001C27.1988 40.9964 27.3725 40.9452 27.524 40.852L40.524 32.852C40.6696 32.7625 40.7898 32.6372 40.8733 32.4881C40.9567 32.3389 41.0005 32.1709 41.0005 32C41.0005 31.8291 40.9567 31.6611 40.8733 31.5119C40.7898 31.3628 40.6696 31.2375 40.524 31.148L27.524 23.148C27.3725 23.0548 27.1988 23.0037 27.0209 22.9999C26.843 22.9962 26.6673 23.04 26.512 23.1269C26.3567 23.2137 26.2274 23.3404 26.1374 23.4939C26.0474 23.6474 25.9999 23.8221 26 24Z" fill="black"/>
</g>
<defs>
<clipPath id="clip0_9075_1782">
<rect width="24" height="24" fill="white" transform="translate(20 20)"/>
</clipPath>
</defs>
</svg>
