<svg width="24" height="24" viewBox="0 0 24 24" fill="none" xmlns="http://www.w3.org/2000/svg">
<g clip-path="url(#clip0_9075_1778)">
<path d="M19.4955 4.13601L7.49553 11.136C7.34446 11.224 7.21911 11.3502 7.13199 11.5018C7.04487 11.6534 6.99902 11.8252 6.99902 12C6.99902 12.1749 7.04487 12.3467 7.13199 12.4983C7.21911 12.6499 7.34446 12.776 7.49553 12.864L19.4955 19.864C19.6475 19.9527 19.8202 19.9997 19.9961 20.0003C20.1721 20.0009 20.3451 19.9551 20.4977 19.8674C20.6502 19.7798 20.777 19.6534 20.8651 19.5011C20.9532 19.3488 20.9996 19.176 20.9995 19V5.00001C20.9996 4.82405 20.9532 4.6512 20.8651 4.4989C20.777 4.3466 20.6502 4.22025 20.4977 4.1326C20.3451 4.04496 20.1721 3.99912 19.9961 3.99972C19.8202 4.00031 19.6475 4.04733 19.4955 4.13601Z" fill="white"/>
<path d="M4 4C4.24493 4.00003 4.48134 4.08996 4.66437 4.25272C4.84741 4.41547 4.96434 4.63975 4.993 4.883L5 5V19C4.99972 19.2549 4.90212 19.5 4.72715 19.6854C4.55218 19.8707 4.31305 19.9822 4.05861 19.9972C3.80416 20.0121 3.55362 19.9293 3.35817 19.7657C3.16271 19.6021 3.0371 19.3701 3.007 19.117L3 19V5C3 4.73478 3.10536 4.48043 3.29289 4.29289C3.48043 4.10536 3.73478 4 4 4Z" fill="white"/>
</g>
<defs>
<clipPath id="clip0_9075_1778">
<rect width="24" height="24" fill="white"/>
</clipPath>
</defs>
</svg>
