<svg width="24" height="24" viewBox="0 0 24 24" fill="none" xmlns="http://www.w3.org/2000/svg">
<g clip-path="url(#clip0_8727_327)">
<path d="M14.2223 3.67412C13.5645 3.23461 12.7912 3.00001 12.0001 3L14.2223 3.67412ZM14.2223 3.67412C14.8801 4.11365 15.3928 4.73836 15.6955 5.46927M14.2223 3.67412L15.6955 5.46927M15.6955 5.46927C15.9983 6.20017 16.0775 7.00444 15.9231 7.78036M15.6955 5.46927L15.9231 7.78036M15.9231 7.78036C15.7688 8.55628 15.3878 9.26902 14.8284 9.82843M15.9231 7.78036L14.8284 9.82843M14.8284 9.82843C14.269 10.3878 13.5563 10.7688 12.7804 10.9231M14.8284 9.82843L12.7804 10.9231M12.7804 10.9231C12.0044 11.0775 11.2002 10.9983 10.4693 10.6955M12.7804 10.9231L10.4693 10.6955M10.4693 10.6955C9.73836 10.3928 9.11365 9.88008 8.67412 9.22228M10.4693 10.6955L8.67412 9.22228M8.67412 9.22228C8.23661 8.5675 8.00215 7.79821 8.00001 7.01088M8.67412 9.22228L8.00001 7.01088M8.00001 7.01088L8.00449 6.81679C8.05154 5.79055 8.49166 4.8216 9.23384 4.11093C9.97832 3.39805 10.9693 3.00007 12 3L8.00001 7.01088Z" stroke="white" stroke-width="2"/>
<path d="M14 15C15.0609 15 16.0783 15.4214 16.8284 16.1716C17.5786 16.9217 18 17.9391 18 19V20C18 20.2652 17.8946 20.5196 17.7071 20.7071C17.5196 20.8946 17.2652 21 17 21H7C6.73478 21 6.48043 20.8946 6.29289 20.7071C6.10536 20.5196 6 20.2652 6 20V19C6 17.9391 6.42143 16.9217 7.17157 16.1716C7.92172 15.4214 8.93913 15 10 15H14Z" stroke="white" stroke-width="2"/>
</g>
<defs>
<clipPath id="clip0_8727_327">
<rect width="24" height="24" fill="white"/>
</clipPath>
</defs>
</svg>
