<svg width="24" height="24" viewBox="0 0 24 24" fill="none" xmlns="http://www.w3.org/2000/svg">
<path d="M11.5268 4.38562C11.6809 3.9344 12.3191 3.9344 12.4732 4.38562L14.2117 9.4767C14.2617 9.6232 14.3768 9.73826 14.5233 9.78829L19.6144 11.5268C20.0656 11.6809 20.0656 12.3191 19.6144 12.4732L14.5233 14.2117C14.3768 14.2617 14.2617 14.3768 14.2117 14.5233L12.4732 19.6144C12.3191 20.0656 11.6809 20.0656 11.5268 19.6144L9.78829 14.5233C9.73826 14.3768 9.6232 14.2617 9.4767 14.2117L4.38562 12.4732C3.9344 12.3191 3.9344 11.6809 4.38562 11.5268L9.4767 9.78829C9.6232 9.73826 9.73826 9.6232 9.78829 9.4767L11.5268 4.38562Z" fill="white"/>
<path d="M17.5268 16.3856C17.6809 15.9344 18.3191 15.9344 18.4732 16.3856L18.6844 17.0041C18.7344 17.1506 18.8494 17.2656 18.9959 17.3156L19.6144 17.5268C20.0656 17.6809 20.0656 18.3191 19.6144 18.4732L18.9959 18.6844C18.8494 18.7344 18.7344 18.8494 18.6844 18.9959L18.4732 19.6144C18.3191 20.0656 17.6809 20.0656 17.5268 19.6144L17.3156 18.9959C17.2656 18.8494 17.1506 18.7344 17.0041 18.6844L16.3856 18.4732C15.9344 18.3191 15.9344 17.6809 16.3856 17.5268L17.0041 17.3156C17.1506 17.2656 17.2656 17.1506 17.3156 17.0041L17.5268 16.3856Z" fill="white"/>
</svg>
